<svg width="16" height="16" viewBox="0 0 16 16" fill="none" xmlns="http://www.w3.org/2000/svg">
<g clip-path="url(#clip0_39_6)">
<path d="M7.59448 0.0274196C7.18785 0.124657 6.82189 0.379244 6.57791 0.732835C6.49305 0.856592 6.38697 1.08996 6.34631 1.24554C6.30034 1.42234 6.28266 1.76002 6.31095 1.94389C6.341 2.13483 6.43647 2.39825 6.53548 2.56621C6.7052 2.85262 7.05172 3.1461 7.35404 3.25925C7.57327 3.34234 7.67581 3.36002 8.11073 3.38477C8.34763 3.39891 8.6252 3.42367 8.72951 3.43958C9.29526 3.52267 9.93172 3.76488 10.448 4.09195C11.88 4.99891 12.6915 6.58831 12.589 8.28731C12.5501 8.92731 12.3963 9.49129 12.1028 10.0765C11.7492 10.7766 11.1534 11.4343 10.4763 11.871C9.74432 12.343 8.89393 12.5887 7.99227 12.5905C7.33106 12.5905 6.7936 12.4844 6.21194 12.2405C5.27846 11.8497 4.49526 11.1549 3.98255 10.2586C3.62365 9.62919 3.43448 8.95737 3.39559 8.16709C3.37437 7.74632 3.3673 7.68444 3.31426 7.49881C3.23117 7.21593 3.08443 6.97372 2.86343 6.7598C2.70432 6.60776 2.60531 6.5388 2.41791 6.45217C2.16332 6.33195 2.01482 6.30367 1.68067 6.30367C1.43669 6.30367 1.36597 6.31074 1.24752 6.34256C1.09017 6.38676 0.855031 6.49284 0.733042 6.5777C0.379451 6.81991 0.12133 7.19472 0.0293961 7.59604C-0.00949891 7.76753 -0.00949892 8.47118 0.0276282 8.83184C0.161993 10.0995 0.625197 11.3936 1.31824 12.4332C1.62056 12.8893 1.91051 13.2411 2.32598 13.6566C3.23294 14.5671 4.30785 15.223 5.55957 15.6279C6.02277 15.7764 6.59382 15.8948 7.16133 15.9585C7.54321 16.0009 8.44133 16.0009 8.81968 15.9585C10.0661 15.8188 11.3054 15.3892 12.2972 14.7563C14.0404 13.6407 15.2798 11.9116 15.7713 9.9103C15.9322 9.25262 15.9905 8.74521 15.9905 7.9903C15.9905 7.39273 15.9693 7.13107 15.8862 6.63251C15.7165 5.63008 15.2904 4.51803 14.7582 3.68532C13.4358 1.61858 11.2683 0.280238 8.83736 0.0256522C8.49437 -0.00970698 7.74476 -0.00793946 7.59448 0.0274196Z" fill="url(#paint0_linear_39_6)"/>
</g>
<defs>
<linearGradient id="paint0_linear_39_6" x1="3.53279" y1="15.9903" x2="16.331" y2="14.0229" gradientUnits="userSpaceOnUse">
<stop stop-color="#425FC4"/>
<stop offset="0.52" stop-color="#397BE1"/>
<stop offset="1" stop-color="#3096FC"/>
</linearGradient>
<clipPath id="clip0_39_6">
<rect width="16" height="16" fill="white"/>
</clipPath>
</defs>
</svg>
